<svg xmlns="http://www.w3.org/2000/svg" viewBox="0 0 100 100" preserveAspectRatio="xMidYMid" width="200" height="200" style="shape-rendering: auto; display: block; background: transparent;" xmlns:xlink="http://www.w3.org/1999/xlink"><g><g transform="rotate(0 50 50)">
  <rect fill="#543854" height="15" width="4" ry="2.85" rx="2" y="15.5" x="48">
    <animate repeatCount="indefinite" begin="-2.8520499108734403s" dur="3.0303030303030303s" keyTimes="0;1" values="1;0" attributeName="opacity"></animate>
  </rect>
</g><g transform="rotate(21.176470588235293 50 50)">
  <rect fill="#543854" height="15" width="4" ry="2.85" rx="2" y="15.5" x="48">
    <animate repeatCount="indefinite" begin="-2.6737967914438503s" dur="3.0303030303030303s" keyTimes="0;1" values="1;0" attributeName="opacity"></animate>
  </rect>
</g><g transform="rotate(42.35294117647059 50 50)">
  <rect fill="#543854" height="15" width="4" ry="2.85" rx="2" y="15.5" x="48">
    <animate repeatCount="indefinite" begin="-2.4955436720142603s" dur="3.0303030303030303s" keyTimes="0;1" values="1;0" attributeName="opacity"></animate>
  </rect>
</g><g transform="rotate(63.529411764705884 50 50)">
  <rect fill="#543854" height="15" width="4" ry="2.85" rx="2" y="15.5" x="48">
    <animate repeatCount="indefinite" begin="-2.3172905525846703s" dur="3.0303030303030303s" keyTimes="0;1" values="1;0" attributeName="opacity"></animate>
  </rect>
</g><g transform="rotate(84.70588235294117 50 50)">
  <rect fill="#543854" height="15" width="4" ry="2.85" rx="2" y="15.5" x="48">
    <animate repeatCount="indefinite" begin="-2.13903743315508s" dur="3.0303030303030303s" keyTimes="0;1" values="1;0" attributeName="opacity"></animate>
  </rect>
</g><g transform="rotate(105.88235294117646 50 50)">
  <rect fill="#543854" height="15" width="4" ry="2.85" rx="2" y="15.5" x="48">
    <animate repeatCount="indefinite" begin="-1.9607843137254901s" dur="3.0303030303030303s" keyTimes="0;1" values="1;0" attributeName="opacity"></animate>
  </rect>
</g><g transform="rotate(127.05882352941177 50 50)">
  <rect fill="#543854" height="15" width="4" ry="2.85" rx="2" y="15.5" x="48">
    <animate repeatCount="indefinite" begin="-1.7825311942959001s" dur="3.0303030303030303s" keyTimes="0;1" values="1;0" attributeName="opacity"></animate>
  </rect>
</g><g transform="rotate(148.23529411764707 50 50)">
  <rect fill="#543854" height="15" width="4" ry="2.85" rx="2" y="15.5" x="48">
    <animate repeatCount="indefinite" begin="-1.6042780748663101s" dur="3.0303030303030303s" keyTimes="0;1" values="1;0" attributeName="opacity"></animate>
  </rect>
</g><g transform="rotate(169.41176470588235 50 50)">
  <rect fill="#543854" height="15" width="4" ry="2.85" rx="2" y="15.5" x="48">
    <animate repeatCount="indefinite" begin="-1.4260249554367201s" dur="3.0303030303030303s" keyTimes="0;1" values="1;0" attributeName="opacity"></animate>
  </rect>
</g><g transform="rotate(190.58823529411765 50 50)">
  <rect fill="#543854" height="15" width="4" ry="2.85" rx="2" y="15.5" x="48">
    <animate repeatCount="indefinite" begin="-1.2477718360071302s" dur="3.0303030303030303s" keyTimes="0;1" values="1;0" attributeName="opacity"></animate>
  </rect>
</g><g transform="rotate(211.76470588235293 50 50)">
  <rect fill="#543854" height="15" width="4" ry="2.85" rx="2" y="15.5" x="48">
    <animate repeatCount="indefinite" begin="-1.06951871657754s" dur="3.0303030303030303s" keyTimes="0;1" values="1;0" attributeName="opacity"></animate>
  </rect>
</g><g transform="rotate(232.94117647058823 50 50)">
  <rect fill="#543854" height="15" width="4" ry="2.85" rx="2" y="15.5" x="48">
    <animate repeatCount="indefinite" begin="-0.8912655971479501s" dur="3.0303030303030303s" keyTimes="0;1" values="1;0" attributeName="opacity"></animate>
  </rect>
</g><g transform="rotate(254.11764705882354 50 50)">
  <rect fill="#543854" height="15" width="4" ry="2.85" rx="2" y="15.5" x="48">
    <animate repeatCount="indefinite" begin="-0.7130124777183601s" dur="3.0303030303030303s" keyTimes="0;1" values="1;0" attributeName="opacity"></animate>
  </rect>
</g><g transform="rotate(275.29411764705884 50 50)">
  <rect fill="#543854" height="15" width="4" ry="2.85" rx="2" y="15.5" x="48">
    <animate repeatCount="indefinite" begin="-0.53475935828877s" dur="3.0303030303030303s" keyTimes="0;1" values="1;0" attributeName="opacity"></animate>
  </rect>
</g><g transform="rotate(296.47058823529414 50 50)">
  <rect fill="#543854" height="15" width="4" ry="2.85" rx="2" y="15.5" x="48">
    <animate repeatCount="indefinite" begin="-0.35650623885918004s" dur="3.0303030303030303s" keyTimes="0;1" values="1;0" attributeName="opacity"></animate>
  </rect>
</g><g transform="rotate(317.6470588235294 50 50)">
  <rect fill="#543854" height="15" width="4" ry="2.85" rx="2" y="15.5" x="48">
    <animate repeatCount="indefinite" begin="-0.17825311942959002s" dur="3.0303030303030303s" keyTimes="0;1" values="1;0" attributeName="opacity"></animate>
  </rect>
</g><g transform="rotate(338.8235294117647 50 50)">
  <rect fill="#543854" height="15" width="4" ry="2.85" rx="2" y="15.5" x="48">
    <animate repeatCount="indefinite" begin="0s" dur="3.0303030303030303s" keyTimes="0;1" values="1;0" attributeName="opacity"></animate>
  </rect>
</g><g></g></g><!-- [ldio] generated by https://loading.io --></svg>